<svg width="91" height="91" viewBox="0 0 91 91" fill="none" xmlns="http://www.w3.org/2000/svg">
<g clip-path="url(#clip0_216_1648)">
<path d="M45.5 6.31946C23.205 6.31946 5.05554 22.1939 5.05554 41.7083C5.05554 61.2228 23.205 77.0972 45.5 77.0972C49.6712 77.0924 53.8219 76.514 57.8355 75.3783L71.8142 84.2761C72.1958 84.521 72.6362 84.6587 73.0893 84.6748C73.5424 84.6909 73.9916 84.5848 74.3896 84.3677C74.7876 84.1506 75.1199 83.8304 75.3517 83.4407C75.5835 83.051 75.7062 82.6062 75.7069 82.1528V65.1409C78.8698 62.1067 81.3937 58.4705 83.1302 54.4463C84.8666 50.422 85.7805 46.0911 85.818 41.7083C85.9444 22.1939 67.795 6.31946 45.5 6.31946ZM71.5108 62.2086C71.2567 62.4443 71.0537 62.7298 70.9146 63.0472C70.7754 63.3646 70.703 63.7073 70.7019 64.0539V77.5522L59.6303 70.4997C59.3214 70.3045 58.9739 70.1786 58.6117 70.1306C58.2495 70.0826 57.8812 70.1137 57.5322 70.2217C53.6362 71.4317 49.5796 72.0453 45.5 72.0417C25.9855 72.0417 10.1111 58.4422 10.1111 41.7083C10.1111 24.9745 25.9855 11.375 45.5 11.375C65.0144 11.375 80.8889 24.9745 80.8889 41.7083C80.8313 45.5887 79.9679 49.4147 78.3535 52.9437C76.7391 56.4727 74.409 59.6277 71.5108 62.2086Z" fill="black"/>
<path d="M45.5 52.1481C46.1704 52.1481 46.8133 51.8818 47.2874 51.4077C47.7614 50.9337 48.0277 50.2907 48.0277 49.6203V21.4356C48.0277 20.7652 47.7614 20.1223 47.2874 19.6482C46.8133 19.1742 46.1704 18.9078 45.5 18.9078C44.8296 18.9078 44.1866 19.1742 43.7126 19.6482C43.2385 20.1223 42.9722 20.7652 42.9722 21.4356V49.5698C42.9655 49.906 43.0259 50.2401 43.1499 50.5527C43.2739 50.8652 43.459 51.1499 43.6944 51.39C43.9298 51.6301 44.2108 51.8208 44.5208 51.951C44.8308 52.0812 45.1637 52.1482 45.5 52.1481Z" fill="black"/>
<path d="M45.5 64.1298C47.3568 64.1298 48.8619 62.6246 48.8619 60.7678C48.8619 58.9111 47.3568 57.4059 45.5 57.4059C43.6433 57.4059 42.1381 58.9111 42.1381 60.7678C42.1381 62.6246 43.6433 64.1298 45.5 64.1298Z" fill="black"/>
</g>
<defs>
<clipPath id="clip0_216_1648">
<rect width="91" height="91" fill="white"/>
</clipPath>
</defs>
</svg>
