<svg width="100" height="100" viewBox="0 0 100 100" fill="none" xmlns="http://www.w3.org/2000/svg">
<path d="M49.9999 45.8333C50.8287 45.8333 51.6236 46.1625 52.2096 46.7485C52.7957 47.3346 53.1249 48.1295 53.1249 48.9583V51.0416C53.1249 51.8704 52.7957 52.6652 52.2096 53.2513C51.6236 53.8373 50.8287 54.1666 49.9999 54.1666C49.1711 54.1666 48.3763 53.8373 47.7902 53.2513C47.2042 52.6652 46.8749 51.8704 46.8749 51.0416V48.9583C46.8749 48.1295 47.2042 47.3346 47.7902 46.7485C48.4999 46 49.1711 45.8333 49.9999 45.8333ZM66.6666 45.8333C67.4954 45.8333 68.2902 46.1625 68.8763 46.7485C69.4623 47.3346 69.7916 48.1295 69.7916 48.9583V51.0416C69.7916 51.8704 69.4623 52.6652 68.8763 53.2513C68.2902 53.8373 67.4954 54.1666 66.6666 54.1666C65.8378 54.1666 65.0429 53.8373 64.4569 53.2513C63.8708 52.6652 63.5416 51.8704 63.5416 51.0416V48.9583C63.5416 48.1295 63.8708 47.3346 64.4569 46.7485C65.0429 46.1625 65.8378 45.8333 66.6666 45.8333ZM33.3333 45.8333C34.1621 45.8333 34.9569 46.1625 35.543 46.7485C36.129 47.3346 36.4583 48.1295 36.4583 48.9583V51.0416C36.4583 51.8704 36.129 52.6652 35.543 53.2513C34.9569 53.8373 34.1621 54.1666 33.3333 54.1666C32.5045 54.1666 31.7096 53.8373 31.1235 53.2513C30.5375 52.6652 30.2083 51.8704 30.2083 51.0416V48.9583C30.2083 48.1295 30.5375 47.3346 31.1235 46.7485C31.7096 46.1625 32.5045 45.8333 33.3333 45.8333Z" fill="#B8B8B8"/>
</svg>
