<svg width="66" height="66" viewBox="0 0 66 66" fill="none" xmlns="http://www.w3.org/2000/svg">
<path d="M34.0761 36.1868L33.625 36.2311V36.6844V38.0625C33.625 38.278 33.5394 38.4846 33.387 38.637C33.2347 38.7894 33.028 38.875 32.8125 38.875C32.597 38.875 32.3904 38.7894 32.238 38.637C32.0856 38.4847 32 38.278 32 38.0625V35.4375C32 35.222 32.0856 35.0153 32.238 34.863C32.3904 34.7106 32.597 34.625 32.8125 34.625C38.0799 34.625 42.5 30.9367 42.5 26.25C42.5 21.5633 38.0799 17.875 32.8125 17.875C27.5451 17.875 23.125 21.5633 23.125 26.25V27.5625C23.125 27.778 23.0394 27.9847 22.887 28.137C22.7347 28.2894 22.528 28.375 22.3125 28.375C22.097 28.375 21.8904 28.2894 21.738 28.137C21.5856 27.9847 21.5 27.778 21.5 27.5625V26.25C21.5 20.7917 26.5184 16.25 32.8125 16.25C39.1066 16.25 44.125 20.7917 44.125 26.25C44.125 31.3386 39.7777 35.6261 34.0761 36.1868ZM63.5 32.813V32.8125C63.5 26.7431 61.7002 20.81 58.3282 15.7634C54.9563 10.7169 50.1635 6.78361 44.5561 4.46095C38.9487 2.13828 32.7785 1.53057 26.8257 2.71465C20.8729 3.89874 15.4049 6.82144 11.1132 11.1132C6.82145 15.4049 3.89875 20.8729 2.71467 26.8257C1.53058 32.7785 2.1383 38.9487 4.46096 44.5561C6.78363 50.1635 10.7169 54.9562 15.7635 58.3282C20.81 61.7002 26.7431 63.5 32.8125 63.5H32.8131C40.949 63.4912 48.7492 60.2552 54.5023 54.5022C60.2553 48.7492 63.4912 40.949 63.5 32.813ZM34.9375 49.875C34.9375 50.2953 34.8129 50.7061 34.5794 51.0556C34.3459 51.405 34.014 51.6774 33.6257 51.8382C33.2374 51.9991 32.8102 52.0412 32.3979 51.9592C31.9857 51.8772 31.6071 51.6748 31.3099 51.3776C31.0127 51.0804 30.8103 50.7018 30.7283 50.2896C30.6464 49.8774 30.6884 49.4501 30.8493 49.0618C31.0101 48.6735 31.2825 48.3416 31.6319 48.1081C31.9814 47.8746 32.3922 47.75 32.8125 47.75C33.3761 47.75 33.9166 47.9739 34.3151 48.3724C34.7136 48.7709 34.9375 49.3114 34.9375 49.875ZM65.125 32.813C65.1249 39.2037 63.2298 45.4508 59.6794 50.7644C56.1288 56.0781 51.0823 60.2197 45.178 62.6654C39.2736 65.111 32.7767 65.7509 26.5087 64.5041C20.2406 63.2573 14.4831 60.1799 9.96413 55.6609C5.44514 51.1419 2.36768 45.3844 1.12089 39.1164C-0.125894 32.8483 0.514 26.3514 2.95966 20.447C5.40531 14.5427 9.54689 9.49618 14.8607 5.94564C20.1743 2.39515 26.4215 0.500055 32.8122 0.5C41.3792 0.50948 49.5926 3.91689 55.6504 9.97466C61.7082 16.0325 65.1156 24.246 65.125 32.813Z" fill="#0085FF" stroke="#0085FF"/>
</svg>
