<svg width="64" height="64" viewBox="0 0 64 64" fill="none" xmlns="http://www.w3.org/2000/svg">
<path d="M62.72 51.2001C61.4162 51.2008 60.1276 50.9209 58.9415 50.3796C57.7185 49.8233 56.3912 49.5336 55.0477 49.5297C53.7016 49.5362 52.3719 49.8258 51.145 50.3796C49.9588 50.9199 48.6705 51.1995 47.3671 51.1995C46.0636 51.1995 44.7753 50.9199 43.5891 50.3796C42.362 49.8278 41.0332 49.5383 39.6877 49.5297C38.3416 49.5362 37.0119 49.8258 35.785 50.3796C34.5964 50.9194 33.3061 51.1986 32.0007 51.1986C30.6953 51.1986 29.4049 50.9194 28.2163 50.3796C26.9958 49.8244 25.6712 49.5347 24.3303 49.5297C22.9846 49.5364 21.6554 49.826 20.4288 50.3796C19.2406 50.92 17.9505 51.1996 16.6451 51.1996C15.3398 51.1996 14.0497 50.92 12.8615 50.3796C11.6349 49.826 10.3057 49.5364 8.96003 49.5297C7.6191 49.5384 6.29488 49.8279 5.07267 50.3796C3.88101 50.9191 2.58815 51.1988 1.28003 51.2001V45.5732C2.58602 45.5647 3.87656 45.2899 5.07267 44.7655C6.29142 44.202 7.61731 43.9077 8.96003 43.9028C10.3501 43.9028 11.6826 44.2228 12.8615 44.7655C14.0505 45.2908 15.335 45.5657 16.6349 45.5732C17.9417 45.5685 19.2334 45.2936 20.4288 44.7655C21.6519 44.2 22.9828 43.9057 24.3303 43.9028C25.7101 43.9028 27.0362 44.2228 28.2163 44.7655C29.4102 45.2929 30.7001 45.5678 32.0051 45.5732C33.3072 45.5666 34.5939 45.2917 35.785 44.7655C37.0084 44.1998 38.3398 43.9055 39.6877 43.9028C41.0611 43.9028 42.3923 44.2228 43.5891 44.7655C44.7347 45.2685 46.0211 45.5732 47.3652 45.5732C48.6672 45.5666 49.9539 45.2917 51.145 44.7655C52.3684 44.1998 53.6998 43.9055 55.0477 43.9028C56.4378 43.9028 57.7677 44.2228 58.9415 44.7655C60.1321 45.2915 61.4184 45.5664 62.72 45.5732V51.2001ZM53.8215 35.282C57.856 35.282 61.1303 32.018 61.1303 28.0141C61.1303 24.0065 57.856 20.7591 53.8215 20.7591C49.7805 20.7591 46.5101 24.0077 46.5101 28.0141C46.5101 32.018 49.4899 35.282 53.8215 35.282ZM11.2525 39.3677C11.8195 39.5021 12.3546 39.698 12.8627 39.9258C14.0501 40.4592 15.3358 40.7387 16.6375 40.7463C17.9815 40.7463 19.2858 40.4417 20.4301 39.9258C21.6555 39.3669 22.9848 39.0721 24.3316 39.0605C25.7114 39.0605 27.04 39.3959 28.2176 39.9258C29.4093 40.4612 30.7 40.7407 32.0064 40.7463C33.3376 40.7463 34.6407 40.4417 35.785 39.9258C37.0108 39.3667 38.3405 39.0719 39.6877 39.0605C41.0624 39.0605 42.3949 39.3959 43.5891 39.9258C44.736 40.4404 46.0211 40.7463 47.3677 40.7463C48.3469 40.7463 49.2903 40.5812 50.1799 40.3034L37.9879 18.4717L52.169 15.9028C54.2503 15.5085 55.7607 13.8855 55.7607 11.8081C55.7607 9.51685 53.8829 7.68005 51.5853 7.68005L51.1117 7.69413L29.2058 11.6519C27.6685 12.0013 25.632 14.2362 26.7917 16.978L26.9786 17.4196L32.6951 27.6634L11.2525 39.3677Z" fill="black"/>
</svg>
