<svg width="53" height="48" viewBox="0 0 53 48" fill="none" xmlns="http://www.w3.org/2000/svg">
<g filter="url(#filter0_d_310_941)">
<path d="M47.875 34.2857H46.75C44.9191 34.2857 43.5297 33.5339 42.8062 32.6875C42.1804 31.9545 41.4238 31.4286 40.5723 31.4286H39.4263C38.5748 31.4286 37.8182 31.9545 37.1924 32.6875C36.4703 33.5339 35.0809 34.2857 33.25 34.2857C31.4191 34.2857 30.0297 33.5339 29.3062 32.6875C28.6804 31.9545 27.9238 31.4286 27.0723 31.4286H25.9263C25.0748 31.4286 24.3182 31.9545 23.6924 32.6875C22.9703 33.5339 21.5809 34.2857 19.75 34.2857C17.9191 34.2857 16.5297 33.5339 15.8062 32.6875C15.1804 31.9545 14.4238 31.4286 13.5723 31.4286H12.4262C11.5748 31.4286 10.8182 31.9545 10.1924 32.6875C9.47031 33.5339 8.08094 34.2857 6.25 34.2857H5.125C4.50344 34.2857 4 34.925 4 35.7143V38.5714C4 39.3607 4.50344 40 5.125 40H6.25C8.96547 40 11.3631 38.9116 13 37.1571C14.6369 38.9125 17.0345 40 19.75 40C22.4655 40 24.8631 38.9116 26.5 37.1571C28.1369 38.9125 30.5345 40 33.25 40C35.9655 40 38.3631 38.9116 40 37.1571C41.6369 38.9125 44.0345 40 46.75 40H47.875C48.4966 40 49 39.3607 49 38.5714V35.7143C49 34.925 48.4966 34.2857 47.875 34.2857ZM19.75 31.4286V22.8571H33.25V31.4286C34.5944 31.4286 35.4198 30.8786 35.668 30.5875C36.3128 29.8321 37.018 29.3071 37.75 28.9741V8.57143C37.75 6.99643 38.7597 5.71429 40 5.71429C41.2403 5.71429 42.25 6.99643 42.25 8.57143V10C42.25 10.7893 42.7534 11.4286 43.375 11.4286H45.625C46.2466 11.4286 46.75 10.7893 46.75 10V8.57143C46.75 3.84464 43.7223 0 40 0C36.2777 0 33.25 3.84464 33.25 8.57143V17.1429H19.75V8.57143C19.75 6.99643 20.7597 5.71429 22 5.71429C23.2403 5.71429 24.25 6.99643 24.25 8.57143V10C24.25 10.7893 24.7534 11.4286 25.375 11.4286H27.625C28.2466 11.4286 28.75 10.7893 28.75 10V8.57143C28.75 3.84464 25.7223 0 22 0C18.2777 0 15.25 3.84464 15.25 8.57143V28.9732C15.982 29.3062 16.6872 29.8321 17.332 30.5866C17.5802 30.8786 18.4056 31.4286 19.75 31.4286Z" fill="#666666"/>
</g>
<defs>
<filter id="filter0_d_310_941" x="0" y="0" width="53" height="48" filterUnits="userSpaceOnUse" color-interpolation-filters="sRGB">
<feFlood flood-opacity="0" result="BackgroundImageFix"/>
<feColorMatrix in="SourceAlpha" type="matrix" values="0 0 0 0 0 0 0 0 0 0 0 0 0 0 0 0 0 0 127 0" result="hardAlpha"/>
<feOffset dy="4"/>
<feGaussianBlur stdDeviation="2"/>
<feComposite in2="hardAlpha" operator="out"/>
<feColorMatrix type="matrix" values="0 0 0 0 0 0 0 0 0 0 0 0 0 0 0 0 0 0 0.25 0"/>
<feBlend mode="normal" in2="BackgroundImageFix" result="effect1_dropShadow_310_941"/>
<feBlend mode="normal" in="SourceGraphic" in2="effect1_dropShadow_310_941" result="shape"/>
</filter>
</defs>
</svg>
