<svg width="31" height="17" viewBox="0 0 31 17" fill="none" xmlns="http://www.w3.org/2000/svg">
<path d="M4.55642 14.7946C3.73072 14.7946 3.10035 14.9615 2.66529 15.2952C2.23024 15.6288 1.7724 15.8885 1.29179 16.0742C0.987708 16.1732 0.717222 16.1533 0.480333 16.0144C0.243444 15.8731 0.125 15.6533 0.125 15.3549C0.125 15.1477 0.195042 14.9541 0.335125 14.7741C0.475208 14.5942 0.691597 14.425 0.984292 14.2667C1.25876 14.0936 1.71887 13.8533 2.36462 13.5458C3.00924 13.2383 3.76432 13.0846 4.62987 13.0846C5.99882 13.0846 6.96972 13.3693 7.54258 13.9387C8.11544 14.5082 8.96221 14.7929 10.0829 14.7929C11.2035 14.7929 12.0429 14.5082 12.601 13.9387C13.159 13.3693 14.1328 13.0846 15.5222 13.0846C16.9117 13.0846 17.8922 13.3693 18.464 13.9387C19.0357 14.5082 19.8819 14.7929 21.0025 14.7929C22.1232 14.7929 22.9574 14.5082 23.5053 13.9387C24.0531 13.3693 25.0194 13.0846 26.4043 13.0846C27.1901 13.0846 27.911 13.2343 28.567 13.5339C29.223 13.8334 29.7435 14.0953 30.1285 14.3197C30.3802 14.4495 30.5681 14.6038 30.6922 14.7827C30.8163 14.9615 30.8773 15.1522 30.875 15.3549C30.875 15.6328 30.7622 15.8469 30.5367 15.9973C30.3112 16.1476 30.0459 16.1732 29.7407 16.0742C29.2828 15.9102 28.8125 15.6556 28.3296 15.3105C27.8467 14.9654 27.2066 14.7929 26.4094 14.7929C25.3127 14.7929 24.4733 15.0776 23.8913 15.6471C23.3094 16.2165 22.3356 16.5012 20.9701 16.5012C19.6046 16.5012 18.6348 16.2165 18.0608 15.6471C17.4868 15.0776 16.6406 14.7929 15.5222 14.7929C14.4038 14.7929 13.5593 15.0776 12.9887 15.6471C12.4182 16.2165 11.4461 16.5012 10.0726 16.5012C8.69912 16.5012 7.71797 16.2165 7.12917 15.6471C6.54036 15.0776 5.68278 14.7929 4.55642 14.7929M4.55642 8.3542C3.73756 8.3542 3.10832 8.52104 2.66871 8.85474C2.23024 9.18843 1.77126 9.44867 1.29179 9.63545C0.98657 9.73339 0.716083 9.71289 0.480333 9.57395C0.243444 9.435 0.125 9.21633 0.125 8.91794C0.125 8.70953 0.195042 8.51592 0.335125 8.33711C0.475208 8.15831 0.691597 7.98918 0.984292 7.82974C1.25876 7.65663 1.71831 7.41632 2.36292 7.10882C3.00753 6.80132 3.76318 6.64757 4.62987 6.64757C5.99882 6.64757 6.96972 6.93229 7.54258 7.50174C8.11544 8.07118 8.96221 8.3559 10.0829 8.3559C11.2035 8.3559 12.0429 8.07118 12.601 7.50174C13.159 6.93229 14.1328 6.64757 15.5222 6.64757C16.9117 6.64757 17.8928 6.93229 18.4657 7.50174C19.0385 8.07118 19.8813 8.3559 20.994 8.3559C22.1056 8.3559 22.9398 8.07118 23.4967 7.50174C24.0536 6.93229 25.0194 6.64757 26.394 6.64757C27.2596 6.64757 28.0204 6.80701 28.6764 7.1259C29.3324 7.44479 29.797 7.69079 30.0704 7.8639C30.3483 8.00513 30.5516 8.16457 30.6802 8.34224C30.8101 8.51763 30.875 8.70953 30.875 8.91794C30.875 9.19583 30.7605 9.40995 30.5316 9.56028C30.3027 9.71061 30.0362 9.73624 29.7321 9.63715C29.2743 9.47315 28.8056 9.21861 28.3262 8.87353C27.8467 8.52845 27.2083 8.3559 26.4111 8.3559C25.3132 8.3559 24.4739 8.64063 23.893 9.21007C23.3122 9.77952 22.3379 10.0642 20.9701 10.0642C19.6023 10.0642 18.6325 9.77952 18.0608 9.21007C17.4891 8.64063 16.6434 8.3559 15.5239 8.3559C14.4044 8.3559 13.5627 8.64063 12.999 9.21007C12.4353 9.77952 11.4666 10.0642 10.0931 10.0642C8.71962 10.0642 7.73335 9.77952 7.13429 9.21007C6.53524 8.64063 5.67594 8.3559 4.55642 8.3559M4.59058 1.91549C3.79336 1.91549 3.15843 2.07778 2.68579 2.40236C2.21429 2.72467 1.74963 2.96782 1.29179 3.13182C0.987708 3.2309 0.717222 3.21097 0.480333 3.07203C0.243444 2.93081 0.125 2.72125 0.125 2.44336C0.125 2.23608 0.195042 2.04817 0.335125 1.87961C0.475208 1.71106 0.691597 1.54763 0.984292 1.38932C1.25876 1.21621 1.71887 0.975904 2.36462 0.668404C3.00924 0.360904 3.76432 0.207153 4.62987 0.207153C5.99882 0.207153 6.96972 0.491876 7.54258 1.06132C8.11544 1.63076 8.96221 1.91549 10.0829 1.91549C11.2035 1.91549 12.0429 1.63076 12.601 1.06132C13.159 0.491876 14.1328 0.207153 15.5222 0.207153C16.9117 0.207153 17.8928 0.491876 18.4657 1.06132C19.0385 1.63076 19.8813 1.91549 20.994 1.91549C22.1056 1.91549 22.9398 1.63076 23.4967 1.06132C24.0536 0.491876 25.0194 0.207153 26.394 0.207153C27.2596 0.207153 28.0204 0.366597 28.6764 0.685486C29.3312 1.00438 29.7959 1.24981 30.0704 1.42178C30.3483 1.56414 30.5516 1.72358 30.6802 1.90011C30.8101 2.07664 30.875 2.26854 30.875 2.47582C30.875 2.75485 30.7605 2.96896 30.5316 3.11815C30.3027 3.26735 30.0362 3.29354 29.7321 3.19674C29.2743 3.0316 28.8056 2.77706 28.3262 2.43311C27.8456 2.08803 27.2066 1.91549 26.4094 1.91549C25.3127 1.91549 24.4733 2.20021 23.8913 2.76965C23.3094 3.3391 22.3356 3.62382 20.9701 3.62382C19.6046 3.62382 18.6348 3.3391 18.0608 2.76965C17.4868 2.20021 16.6406 1.91549 15.5222 1.91549C14.4038 1.91549 13.5622 2.20021 12.9973 2.76965C12.4324 3.3391 11.4643 3.62382 10.0931 3.62382C8.7219 3.62382 7.74075 3.3391 7.14967 2.76965C6.55858 2.20021 5.70669 1.91549 4.59058 1.91549Z" fill="black"/>
</svg>
