<svg width="80" height="80" viewBox="0 0 80 80" fill="none" xmlns="http://www.w3.org/2000/svg">
<path d="M40 7C21.7738 7 7 19.7106 7 35.3558C7 45.2418 12.9231 53.9356 21.8754 58.9978L18.8969 71.9468C18.8587 72.1085 18.8656 72.2788 18.9166 72.4362C18.9677 72.5937 19.0608 72.7311 19.1839 72.8313C19.3071 72.9314 19.4549 72.9897 19.6087 72.9988C19.7624 73.0078 19.9152 72.9673 20.0477 72.8822L34.9231 63.308C36.6066 63.5452 38.3023 63.6677 40 63.6749C58.2262 63.6749 73 51.001 73 35.3558C73 19.7106 58.2262 7 40 7Z" stroke="#0085FF" stroke-width="2" stroke-linecap="round" stroke-linejoin="round"/>
<path d="M39.85 40.2833C42.3445 40.2833 44.3667 38.2612 44.3667 35.7667C44.3667 33.2722 42.3445 31.25 39.85 31.25C37.3556 31.25 35.3334 33.2722 35.3334 35.7667C35.3334 38.2612 37.3556 40.2833 39.85 40.2833Z" stroke="#0085FF" stroke-width="2" stroke-linecap="round" stroke-linejoin="round"/>
<path d="M56.0833 40.2833C58.5778 40.2833 60.6 38.2612 60.6 35.7667C60.6 33.2722 58.5778 31.25 56.0833 31.25C53.5888 31.25 51.5667 33.2722 51.5667 35.7667C51.5667 38.2612 53.5888 40.2833 56.0833 40.2833Z" stroke="#0085FF" stroke-width="2" stroke-linecap="round" stroke-linejoin="round"/>
<path d="M23.6334 40.2833C26.1279 40.2833 28.15 38.2612 28.15 35.7667C28.15 33.2722 26.1279 31.25 23.6334 31.25C21.1389 31.25 19.1167 33.2722 19.1167 35.7667C19.1167 38.2612 21.1389 40.2833 23.6334 40.2833Z" stroke="#0085FF" stroke-width="2" stroke-linecap="round" stroke-linejoin="round"/>
</svg>
