<svg width="150" height="150" viewBox="0 0 150 150" fill="none" xmlns="http://www.w3.org/2000/svg">
<path d="M125 12.5H25C18.0964 12.5 12.5 18.0964 12.5 25V125C12.5 131.904 18.0964 137.5 25 137.5H125C131.904 137.5 137.5 131.904 137.5 125V25C137.5 18.0964 131.904 12.5 125 12.5Z" fill="#E3E3E3"/>
<path d="M43.311 99.8657L66.5419 61.8518C68.9787 57.8639 74.7712 57.8639 77.2081 61.8518L100.439 99.8657C102.984 104.031 99.9869 109.375 95.1056 109.375H48.6441C43.7633 109.375 40.766 104.031 43.311 99.8657Z" fill="#17C07E"/>
<path d="M100 65.625C106.904 65.625 112.5 60.0286 112.5 53.125C112.5 46.2214 106.904 40.625 100 40.625C93.0964 40.625 87.5 46.2214 87.5 53.125C87.5 60.0286 93.0964 65.625 100 65.625Z" fill="#666666"/>
</svg>
